<?xml version="1.0" standalone="no"?>
<!DOCTYPE svg PUBLIC "-//W3C//DTD SVG 20010904//EN"
 "http://www.w3.org/TR/2001/REC-SVG-20010904/DTD/svg10.dtd">
<svg version="1.0" xmlns="http://www.w3.org/2000/svg"
 width="531.000000pt" height="531.000000pt" viewBox="0 0 531.000000 531.000000"
 preserveAspectRatio="xMidYMid meet">
<metadata>
Created by potrace 1.11, written by Peter Selinger 2001-2013
</metadata>
<g transform="translate(0.000000,531.000000) scale(0.100000,-0.100000)"
fill="#000000" stroke="none">
<path d="M2435 5140 c-340 -35 -612 -113 -910 -262 -119 -60 -322 -185 -390
-240 -113 -93 -192 -164 -263 -236 -85 -86 -221 -250 -271 -326 -14 -23 -29
-42 -33 -44 -5 -2 -8 -8 -8 -13 0 -5 -16 -33 -35 -64 -20 -30 -36 -58 -37 -62
-1 -5 -14 -29 -29 -56 -41 -68 -131 -277 -168 -386 -149 -444 -168 -940 -55
-1395 68 -271 192 -552 346 -783 104 -156 318 -399 434 -493 17 -14 63 -51
101 -82 310 -251 802 -458 1198 -503 33 -4 69 -9 80 -12 41 -8 383 -11 460 -3
162 17 192 22 310 46 218 45 463 136 679 252 569 304 1014 857 1195 1482 73
251 96 421 96 695 0 200 -10 322 -41 490 -19 104 -75 292 -126 425 -41 106
-158 342 -184 371 -8 8 -14 19 -14 23 0 7 -91 144 -115 175 -8 9 -44 54 -81
99 -161 202 -394 405 -629 549 -29 18 -325 166 -361 181 -157 64 -404 130
-601 158 -118 17 -436 25 -548 14z"/>
</g>
</svg>
